<svg width="193" height="35" viewBox="0 0 193 35" fill="none" xmlns="http://www.w3.org/2000/svg">
<g clip-path="url(#clip0_187_18031)">
<g clip-path="url(#clip1_187_18031)">
<path d="M27.4627 2.02889C27.137 2.20604 26.5004 2.47177 26.0563 2.63415C25.2864 2.89988 24.635 2.91464 14.5086 2.98845L3.7752 3.06227L2.94613 3.46085C1.95422 3.93325 1.2732 4.67138 0.799453 5.74904C0.458946 6.50193 0.444141 6.70861 0.444141 9.57254V12.6136L1.00672 12.1707C1.31762 11.9198 1.76176 11.6688 2.01344 11.6098C2.25031 11.5507 2.5316 11.4326 2.65004 11.344C2.79809 11.2259 6.11434 11.1521 13.8276 11.0931C25.5085 11.0045 25.6417 11.0045 26.8261 10.2664C27.1222 10.0892 27.5515 9.69064 27.7884 9.39539L28.2029 8.84917L28.2474 5.37998C28.277 3.47562 28.2474 1.8665 28.1733 1.80745C28.1141 1.7484 27.7884 1.85174 27.4627 2.02889ZM32.3631 5.80809C32.0522 6.05906 31.9781 6.23621 31.9781 6.76766C31.9781 7.66817 32.3631 8.08152 33.2365 8.08152C34.3025 8.08152 34.8947 7.19577 34.4801 6.20668C34.1692 5.46856 33.0737 5.26188 32.3631 5.80809ZM78.6129 5.60142C78.2132 5.73428 78.0207 6.13287 78.0207 6.76766C78.0207 7.66817 78.4057 8.08152 79.2495 8.08152C80.1822 8.08152 80.5375 7.72722 80.5375 6.81195C80.5375 6.23621 80.4783 6.05906 80.1526 5.80809C79.7825 5.51284 79.1015 5.42427 78.6129 5.60142ZM93.1511 12.7612L93.1956 19.8915L94.4243 19.9358L95.6383 19.9801V5.82286C95.6383 5.76381 95.0758 5.70476 94.3799 5.67523L93.1215 5.63094L93.1511 12.7612ZM39.6026 9.49872C39.04 9.57254 38.1813 9.73492 37.7224 9.86779L36.8637 10.1187V19.9653H39.2324V16.1566C39.2324 11.7869 39.2324 11.7869 40.3724 11.6098C40.9054 11.536 41.1719 11.5655 41.5568 11.7722C42.4155 12.2446 42.4747 12.5693 42.5191 16.4223L42.5635 19.8915L43.7923 19.9358L45.0063 19.9801L44.9915 15.8761C44.9915 11.9641 44.9767 11.7426 44.6658 11.1078C44.2216 10.2073 43.3778 9.67587 42.1046 9.48396C40.9646 9.32157 41.0386 9.32157 39.6026 9.49872ZM49.9955 9.49872C48.6778 9.74969 47.8044 10.5321 47.4194 11.7722C47.1974 12.4808 47.301 12.5841 48.2929 12.5841C49.1664 12.5841 49.4477 12.4808 49.4477 12.1412C49.4477 11.9936 49.6549 11.6983 49.9066 11.4917C50.5136 10.975 51.8757 10.9455 52.4234 11.4179C53.0304 11.9493 53.3857 13.6913 52.9416 14.0456C52.7935 14.1784 52.4826 14.1784 51.7276 14.0603C49.8474 13.7503 48.3817 14.1194 47.4491 15.0937C47.0197 15.5366 47.0049 15.6104 47.0049 16.8505C47.0197 18.0905 47.0345 18.1791 47.4935 18.7548C47.7599 19.0796 48.2929 19.5077 48.6778 19.6996C49.3144 20.0096 49.5513 20.0392 51.3723 20.0096C52.8824 19.9949 53.593 19.9211 54.2592 19.7144L55.1475 19.4339L55.1919 15.5514C55.2215 12.0822 55.1919 11.595 54.9698 11.1078C54.5849 10.2959 53.6078 9.7054 52.305 9.49872C51.1058 9.32157 50.9874 9.32157 49.9955 9.49872ZM52.1717 15.8909C52.8083 16.1123 53.1341 16.5552 53.1489 17.2343C53.1489 17.9576 52.8083 18.2972 51.9645 18.4153C50.3064 18.6367 49.1516 18.0019 49.1516 16.8505C49.1516 16.3485 49.2256 16.2304 49.6401 15.9795C50.2027 15.6252 51.3131 15.5956 52.1717 15.8909ZM59.959 9.55777C58.1825 9.8235 57.6051 10.0154 57.5162 10.414C57.4718 10.5912 57.457 12.7908 57.4718 15.3152L57.5162 19.8915H60.033L60.0775 15.9942C60.0923 13.5141 60.1663 12.0231 60.2699 11.905C60.4624 11.6836 61.5875 11.4769 61.9873 11.6098C62.1353 11.6541 62.4314 11.8607 62.6683 12.0674L63.068 12.4512V19.9801L64.3708 19.9358L65.6588 19.8915L65.6884 16.6438C65.7328 12.6136 65.57 11.1964 65.0222 10.5764C64.3856 9.88255 63.9267 9.66111 62.7127 9.49872C62.0761 9.41015 61.4839 9.3511 61.3951 9.3511C61.2914 9.36586 60.6548 9.45444 59.959 9.55777ZM70.4704 9.49872C69.212 9.7054 68.072 10.4878 67.8647 11.3145C67.8203 11.5212 67.7167 11.7426 67.6427 11.7869C67.465 11.8903 67.465 17.5591 67.6427 17.6624C67.7167 17.7067 67.8203 17.9281 67.8647 18.1348C67.998 18.6367 68.7234 19.3601 69.4932 19.7439C69.9818 19.9949 70.3667 20.0392 71.7139 20.0392C73.2536 20.0244 73.4017 20.0096 74.0235 19.611C75.1042 18.932 75.5632 18.2234 75.7112 16.9833L75.7852 16.3042L74.6009 16.2452C73.3869 16.2009 73.1352 16.2895 73.1352 16.7324C73.1352 16.88 72.9131 17.2343 72.6318 17.5148C71.8324 18.371 70.7961 18.1938 70.2631 17.1309C70.0854 16.7766 70.0262 16.1861 70.0262 14.6508C70.0262 12.2888 70.1743 11.8164 71.0033 11.5507C72.0545 11.1964 72.9427 11.6836 73.2092 12.776C73.3129 13.1598 73.3425 13.1746 74.4676 13.1746C75.7556 13.1746 75.8297 13.1155 75.6964 12.1855C75.5188 10.8569 74.29 9.76445 72.6762 9.49872C71.5659 9.32157 71.6103 9.32157 70.4704 9.49872ZM85.8672 9.49872C84.9938 9.67587 84.3868 9.97112 83.9278 10.473C83.3356 11.1226 83.0543 11.6541 83.0543 12.1412V12.5841H84.0166C84.9197 12.5841 84.979 12.5546 85.201 12.156C85.5563 11.4474 86.1189 11.1078 86.8888 11.1078C87.8807 11.1078 88.1323 11.2112 88.5025 11.7574C88.8578 12.2741 88.9614 13.5437 88.6801 14.0751C88.5469 14.3113 88.4729 14.3261 88.1916 14.1932C88.0139 14.0899 87.2145 14.0013 86.3854 14.0013C84.8161 13.9865 83.8982 14.2523 83.3208 14.887C82.8767 15.389 82.5658 16.3928 82.6546 17.1014C82.773 18.2234 83.306 19.0501 84.2387 19.5815C85.0382 20.0244 85.0974 20.0392 86.9036 20.0392C88.8726 20.0392 90.6491 19.6996 91.0193 19.2567C91.2413 18.9615 91.271 13.8537 91.0341 12.4365C90.7232 10.4878 89.9977 9.77921 88.0287 9.49872C86.6963 9.32157 86.7851 9.32157 85.8672 9.49872ZM88.0287 15.9204C88.7541 16.2157 88.8282 16.3338 88.8282 17.1752C88.8282 18.0757 88.5173 18.3415 87.3773 18.4448C85.7488 18.5924 84.6384 17.6919 84.9493 16.4962C85.0086 16.2895 85.2158 16.0238 85.4231 15.9204C85.9413 15.6399 87.3477 15.6399 88.0287 15.9204ZM106.668 9.43967C105.661 9.57254 105.069 9.8235 104.506 10.3254C103.485 11.2407 103.411 11.5507 103.411 14.7247C103.411 17.7805 103.47 18.0315 104.358 18.9763C105.128 19.8177 105.765 20.0244 107.482 20.0244C108.785 20.0244 109.14 19.9801 109.644 19.7144C111.198 18.8877 111.627 17.81 111.627 14.6361C111.627 10.9455 110.991 9.88255 108.548 9.49872C107.971 9.41015 107.408 9.3511 107.304 9.3511C107.201 9.36586 106.92 9.41015 106.668 9.43967ZM108.533 11.7869C108.933 12.1412 109.111 13.0565 109.111 14.6804C109.111 17.1162 108.637 18.0315 107.378 18.0462C106.712 18.0462 106.253 17.7214 105.987 17.0424C105.913 16.8505 105.854 15.8023 105.854 14.6951C105.854 12.466 106.031 11.8312 106.712 11.5655C107.216 11.3736 108.208 11.4917 108.533 11.7869ZM125.248 9.49872C123.59 9.77921 122.479 10.5912 121.976 11.9345C121.591 12.9384 121.576 16.0385 121.961 17.3376C122.464 19.0944 123.797 19.9358 126.21 20.0096L127.394 20.0392L127.439 20.8659C127.468 21.5745 127.424 21.7664 127.113 22.1207C126.787 22.5045 126.669 22.5488 125.84 22.5488C124.952 22.5488 124.892 22.5193 124.433 21.9878C123.975 21.4564 123.93 21.4416 122.909 21.4416C122.331 21.4416 121.828 21.5006 121.769 21.5745C121.724 21.663 121.843 22.0321 122.02 22.4307C122.761 23.966 125.203 24.7484 127.439 24.1579C128.594 23.8479 129.127 23.5084 129.585 22.7702C129.911 22.2683 129.911 22.165 129.956 16.2452L130 10.2368L129.363 9.9416C129.008 9.77921 128.209 9.57254 127.572 9.49872C126.284 9.32157 126.373 9.32157 125.248 9.49872ZM127.246 11.5507C127.602 11.846 127.572 16.6585 127.217 17.1605C126.817 17.7362 126.551 17.8838 125.944 17.8986C124.611 17.8986 124.3 17.2048 124.345 14.3556C124.374 12.3774 124.522 11.9198 125.218 11.5507C125.825 11.2407 126.876 11.2407 127.246 11.5507ZM32.0818 9.72016C32.0226 9.77921 31.9781 12.1117 31.9781 14.9018V19.9653H34.4949L34.4653 14.828L34.4209 9.7054L33.3106 9.66111C32.6888 9.64635 32.141 9.66111 32.0818 9.72016ZM78.0948 9.95636C78.0504 10.1483 78.0356 12.4512 78.0504 15.0937L78.0948 19.8915L79.3236 19.9358L80.5375 19.9801V9.63159H79.3532C78.2576 9.63159 78.1688 9.66111 78.0948 9.95636ZM116.824 9.88255C115.269 10.2516 114.396 10.9307 113.952 12.1412C113.744 12.7022 113.7 13.4256 113.7 16.3928V19.9801L114.929 19.9358L116.143 19.8915L116.187 16.57C116.232 12.1855 116.32 11.9936 118.482 11.9936L119.548 11.9788L120.036 10.975C120.288 10.4288 120.51 9.89731 120.51 9.80874C120.51 9.55777 117.993 9.60206 116.824 9.88255ZM26.9001 12.3774C26.5004 12.5693 26.0711 12.7317 25.923 12.7317C25.7898 12.7317 25.5973 12.8055 25.5085 12.8941C25.094 13.3075 22.8881 13.396 13.1762 13.396H3.33106L2.50199 13.7946C1.5693 14.2227 0.47375 15.3742 0.340508 16.009C0.296094 16.2452 0.192461 16.4666 0.133242 16.5109C0.0592187 16.5552 0 18.0167 0 19.7734V22.9621L0.340508 22.6669C0.799454 22.2388 1.42125 21.9583 2.45758 21.6926C3.19781 21.5006 5.10762 21.4416 14.0052 21.3678C26.2043 21.2644 25.7454 21.3087 26.989 20.0687L27.6848 19.3601L27.6996 16.5995C27.7292 13.0417 27.7144 12.1265 27.6552 12.0674C27.6256 12.0379 27.2851 12.1707 26.9001 12.3774ZM98.0811 18.0905C98.0219 18.2824 98.0071 18.7696 98.0367 19.1682L98.0811 19.8915H101.042V17.8248L99.606 17.7805C98.1995 17.7362 98.1551 17.751 98.0811 18.0905ZM3.92324 23.7593C2.01344 24.2317 1.09555 24.9256 0.370117 26.4166C0.0148047 27.1547 0 27.2728 0 30.2105C0 32.1444 0.0592188 33.2516 0.148047 33.2516C0.236875 33.2516 0.296094 33.2073 0.296094 33.1335C0.296094 33.0302 1.08074 32.6021 1.99863 32.2035C2.29473 32.0706 3.4791 31.9968 5.69981 31.9525C7.62442 31.923 9.03086 31.8344 9.1493 31.7458C9.28254 31.6277 9.32696 30.6386 9.32696 27.7009C9.32696 25.5603 9.31215 23.8036 9.29735 23.7888C9.03086 23.7298 4.14531 23.7003 3.92324 23.7593Z" fill="#3E7AAE"/>
</g>
</g>
<path d="M41.86 24.16C41.4467 24.16 41.12 24.0467 40.88 23.82C40.6533 23.58 40.54 23.24 40.54 22.8V11.26C40.54 10.82 40.6533 10.4867 40.88 10.26C41.12 10.02 41.46 9.9 41.9 9.9H48.88C49.2267 9.9 49.4867 9.98667 49.66 10.16C49.8333 10.3333 49.92 10.58 49.92 10.9C49.92 11.2333 49.8333 11.4933 49.66 11.68C49.4867 11.8533 49.2267 11.94 48.88 11.94H43.1V15.92H48.46C48.7933 15.92 49.0467 16.0067 49.22 16.18C49.4067 16.3533 49.5 16.6 49.5 16.92C49.5 17.2533 49.4067 17.5133 49.22 17.7C49.0467 17.8733 48.7933 17.96 48.46 17.96H43.1V22.8C43.1 23.7067 42.6867 24.16 41.86 24.16ZM53.1713 24.14C52.7713 24.14 52.4646 24.02 52.2513 23.78C52.0379 23.54 51.9313 23.2067 51.9313 22.78V15.44C51.9313 15 52.0379 14.6667 52.2513 14.44C52.4646 14.2 52.7713 14.08 53.1713 14.08C53.5713 14.08 53.8779 14.2 54.0913 14.44C54.3179 14.6667 54.4313 15 54.4313 15.44V22.78C54.4313 23.2067 54.3246 23.54 54.1113 23.78C53.8979 24.02 53.5846 24.14 53.1713 24.14ZM53.1713 12.22C52.7046 12.22 52.3379 12.1067 52.0713 11.88C51.8179 11.64 51.6913 11.3133 51.6913 10.9C51.6913 10.4733 51.8179 10.1467 52.0713 9.92C52.3379 9.69333 52.7046 9.58 53.1713 9.58C53.6513 9.58 54.0179 9.69333 54.2713 9.92C54.5246 10.1467 54.6513 10.4733 54.6513 10.9C54.6513 11.3133 54.5246 11.64 54.2713 11.88C54.0179 12.1067 53.6513 12.22 53.1713 12.22ZM57.8689 24.16C57.4689 24.16 57.1622 24.0533 56.9489 23.84C56.7356 23.6133 56.6289 23.2933 56.6289 22.88V15.32C56.6289 14.9067 56.7356 14.5933 56.9489 14.38C57.1622 14.1667 57.4622 14.06 57.8489 14.06C58.2356 14.06 58.5356 14.1667 58.7489 14.38C58.9622 14.5933 59.0689 14.9067 59.0689 15.32V16.68L58.8489 16.18C59.1422 15.4733 59.5956 14.94 60.2089 14.58C60.8356 14.2067 61.5422 14.02 62.3289 14.02C63.1156 14.02 63.7622 14.1667 64.2689 14.46C64.7756 14.7533 65.1556 15.2 65.4089 15.8C65.6622 16.3867 65.7889 17.1333 65.7889 18.04V22.88C65.7889 23.2933 65.6822 23.6133 65.4689 23.84C65.2556 24.0533 64.9489 24.16 64.5489 24.16C64.1489 24.16 63.8356 24.0533 63.6089 23.84C63.3956 23.6133 63.2889 23.2933 63.2889 22.88V18.16C63.2889 17.4 63.1422 16.8467 62.8489 16.5C62.5689 16.1533 62.1289 15.98 61.5289 15.98C60.7956 15.98 60.2089 16.2133 59.7689 16.68C59.3422 17.1333 59.1289 17.74 59.1289 18.5V22.88C59.1289 23.7333 58.7089 24.16 57.8689 24.16ZM71.1481 24.2C70.4415 24.2 69.8081 24.0667 69.2481 23.8C68.7015 23.52 68.2681 23.1467 67.9481 22.68C67.6415 22.2133 67.4881 21.6867 67.4881 21.1C67.4881 20.38 67.6748 19.8133 68.0481 19.4C68.4215 18.9733 69.0281 18.6667 69.8681 18.48C70.7081 18.2933 71.8348 18.2 73.2481 18.2H74.2481V19.64H73.2681C72.4415 19.64 71.7815 19.68 71.2881 19.76C70.7948 19.84 70.4415 19.98 70.2281 20.18C70.0281 20.3667 69.9281 20.6333 69.9281 20.98C69.9281 21.42 70.0815 21.78 70.3881 22.06C70.6948 22.34 71.1215 22.48 71.6681 22.48C72.1081 22.48 72.4948 22.38 72.8281 22.18C73.1748 21.9667 73.4481 21.68 73.6481 21.32C73.8481 20.96 73.9481 20.5467 73.9481 20.08V17.78C73.9481 17.1133 73.8015 16.6333 73.5081 16.34C73.2148 16.0467 72.7215 15.9 72.0281 15.9C71.6415 15.9 71.2215 15.9467 70.7681 16.04C70.3281 16.1333 69.8615 16.2933 69.3681 16.52C69.1148 16.64 68.8881 16.6733 68.6881 16.62C68.5015 16.5667 68.3548 16.46 68.2481 16.3C68.1415 16.1267 68.0881 15.94 68.0881 15.74C68.0881 15.54 68.1415 15.3467 68.2481 15.16C68.3548 14.96 68.5348 14.8133 68.7881 14.72C69.4015 14.4667 69.9881 14.2867 70.5481 14.18C71.1215 14.0733 71.6415 14.02 72.1081 14.02C73.0681 14.02 73.8548 14.1667 74.4681 14.46C75.0948 14.7533 75.5615 15.2 75.8681 15.8C76.1748 16.3867 76.3281 17.1467 76.3281 18.08V22.88C76.3281 23.2933 76.2281 23.6133 76.0281 23.84C75.8281 24.0533 75.5415 24.16 75.1681 24.16C74.7948 24.16 74.5015 24.0533 74.2881 23.84C74.0881 23.6133 73.9881 23.2933 73.9881 22.88V21.92H74.1481C74.0548 22.3867 73.8681 22.7933 73.5881 23.14C73.3215 23.4733 72.9815 23.7333 72.5681 23.92C72.1548 24.1067 71.6815 24.2 71.1481 24.2ZM79.7056 24.16C79.3056 24.16 78.999 24.0533 78.7856 23.84C78.5723 23.6133 78.4656 23.2933 78.4656 22.88V15.32C78.4656 14.9067 78.5723 14.5933 78.7856 14.38C78.999 14.1667 79.299 14.06 79.6856 14.06C80.0723 14.06 80.3723 14.1667 80.5856 14.38C80.799 14.5933 80.9056 14.9067 80.9056 15.32V16.68L80.6856 16.18C80.979 15.4733 81.4323 14.94 82.0456 14.58C82.6723 14.2067 83.379 14.02 84.1656 14.02C84.9523 14.02 85.599 14.1667 86.1056 14.46C86.6123 14.7533 86.9923 15.2 87.2456 15.8C87.499 16.3867 87.6256 17.1333 87.6256 18.04V22.88C87.6256 23.2933 87.519 23.6133 87.3056 23.84C87.0923 24.0533 86.7856 24.16 86.3856 24.16C85.9856 24.16 85.6723 24.0533 85.4456 23.84C85.2323 23.6133 85.1256 23.2933 85.1256 22.88V18.16C85.1256 17.4 84.979 16.8467 84.6856 16.5C84.4056 16.1533 83.9656 15.98 83.3656 15.98C82.6323 15.98 82.0456 16.2133 81.6056 16.68C81.179 17.1333 80.9656 17.74 80.9656 18.5V22.88C80.9656 23.7333 80.5456 24.16 79.7056 24.16ZM94.2848 24.2C93.2582 24.2 92.3648 23.9933 91.6048 23.58C90.8448 23.1533 90.2582 22.5533 89.8448 21.78C89.4315 21.0067 89.2248 20.1 89.2248 19.06C89.2248 18.2733 89.3382 17.5733 89.5648 16.96C89.8048 16.3333 90.1448 15.8067 90.5848 15.38C91.0248 14.94 91.5582 14.6067 92.1848 14.38C92.8115 14.14 93.5115 14.02 94.2848 14.02C94.7248 14.02 95.1982 14.08 95.7048 14.2C96.2248 14.32 96.7115 14.52 97.1648 14.8C97.3782 14.9333 97.5182 15.0933 97.5848 15.28C97.6515 15.4667 97.6648 15.66 97.6248 15.86C97.5848 16.0467 97.4982 16.2133 97.3648 16.36C97.2448 16.4933 97.0915 16.58 96.9048 16.62C96.7182 16.6467 96.5115 16.6 96.2848 16.48C95.9915 16.3067 95.6915 16.18 95.3848 16.1C95.0782 16.0067 94.7848 15.96 94.5048 15.96C94.0648 15.96 93.6782 16.0333 93.3448 16.18C93.0115 16.3133 92.7248 16.5133 92.4848 16.78C92.2582 17.0333 92.0848 17.3533 91.9648 17.74C91.8448 18.1267 91.7848 18.5733 91.7848 19.08C91.7848 20.0667 92.0182 20.8467 92.4848 21.42C92.9648 21.98 93.6382 22.26 94.5048 22.26C94.7848 22.26 95.0715 22.22 95.3648 22.14C95.6715 22.06 95.9782 21.9333 96.2848 21.76C96.5115 21.64 96.7115 21.6 96.8848 21.64C97.0715 21.68 97.2248 21.7733 97.3448 21.92C97.4648 22.0533 97.5382 22.22 97.5648 22.42C97.5915 22.6067 97.5648 22.7933 97.4848 22.98C97.4182 23.1667 97.2848 23.32 97.0848 23.44C96.6448 23.7067 96.1782 23.9 95.6848 24.02C95.1915 24.14 94.7248 24.2 94.2848 24.2ZM100.038 24.14C99.6384 24.14 99.3318 24.02 99.1184 23.78C98.9051 23.54 98.7984 23.2067 98.7984 22.78V15.44C98.7984 15 98.9051 14.6667 99.1184 14.44C99.3318 14.2 99.6384 14.08 100.038 14.08C100.438 14.08 100.745 14.2 100.958 14.44C101.185 14.6667 101.298 15 101.298 15.44V22.78C101.298 23.2067 101.192 23.54 100.978 23.78C100.765 24.02 100.452 24.14 100.038 24.14ZM100.038 12.22C99.5718 12.22 99.2051 12.1067 98.9384 11.88C98.6851 11.64 98.5584 11.3133 98.5584 10.9C98.5584 10.4733 98.6851 10.1467 98.9384 9.92C99.2051 9.69333 99.5718 9.58 100.038 9.58C100.518 9.58 100.885 9.69333 101.138 9.92C101.392 10.1467 101.518 10.4733 101.518 10.9C101.518 11.3133 101.392 11.64 101.138 11.88C100.885 12.1067 100.518 12.22 100.038 12.22ZM106.716 24.2C106.009 24.2 105.376 24.0667 104.816 23.8C104.269 23.52 103.836 23.1467 103.516 22.68C103.209 22.2133 103.056 21.6867 103.056 21.1C103.056 20.38 103.243 19.8133 103.616 19.4C103.989 18.9733 104.596 18.6667 105.436 18.48C106.276 18.2933 107.403 18.2 108.816 18.2H109.816V19.64H108.836C108.009 19.64 107.349 19.68 106.856 19.76C106.363 19.84 106.009 19.98 105.796 20.18C105.596 20.3667 105.496 20.6333 105.496 20.98C105.496 21.42 105.649 21.78 105.956 22.06C106.263 22.34 106.689 22.48 107.236 22.48C107.676 22.48 108.063 22.38 108.396 22.18C108.743 21.9667 109.016 21.68 109.216 21.32C109.416 20.96 109.516 20.5467 109.516 20.08V17.78C109.516 17.1133 109.369 16.6333 109.076 16.34C108.783 16.0467 108.289 15.9 107.596 15.9C107.209 15.9 106.789 15.9467 106.336 16.04C105.896 16.1333 105.429 16.2933 104.936 16.52C104.683 16.64 104.456 16.6733 104.256 16.62C104.069 16.5667 103.923 16.46 103.816 16.3C103.709 16.1267 103.656 15.94 103.656 15.74C103.656 15.54 103.709 15.3467 103.816 15.16C103.923 14.96 104.103 14.8133 104.356 14.72C104.969 14.4667 105.556 14.2867 106.116 14.18C106.689 14.0733 107.209 14.02 107.676 14.02C108.636 14.02 109.423 14.1667 110.036 14.46C110.663 14.7533 111.129 15.2 111.436 15.8C111.743 16.3867 111.896 17.1467 111.896 18.08V22.88C111.896 23.2933 111.796 23.6133 111.596 23.84C111.396 24.0533 111.109 24.16 110.736 24.16C110.363 24.16 110.069 24.0533 109.856 23.84C109.656 23.6133 109.556 23.2933 109.556 22.88V21.92H109.716C109.623 22.3867 109.436 22.7933 109.156 23.14C108.889 23.4733 108.549 23.7333 108.136 23.92C107.723 24.1067 107.249 24.2 106.716 24.2ZM117.374 24.2C116.267 24.2 115.434 23.8867 114.874 23.26C114.314 22.62 114.034 21.6867 114.034 20.46V11C114.034 10.5867 114.14 10.2733 114.354 10.06C114.567 9.84667 114.874 9.74 115.274 9.74C115.674 9.74 115.98 9.84667 116.194 10.06C116.42 10.2733 116.534 10.5867 116.534 11V20.34C116.534 20.9533 116.66 21.4067 116.914 21.7C117.18 21.9933 117.554 22.14 118.034 22.14C118.14 22.14 118.24 22.14 118.334 22.14C118.427 22.1267 118.52 22.1133 118.614 22.1C118.8 22.0733 118.927 22.1267 118.994 22.26C119.06 22.38 119.094 22.6333 119.094 23.02C119.094 23.3533 119.027 23.6133 118.894 23.8C118.76 23.9867 118.54 24.1 118.234 24.14C118.1 24.1533 117.96 24.1667 117.814 24.18C117.667 24.1933 117.52 24.2 117.374 24.2ZM125.43 24.16C125.11 24.16 124.85 24.0867 124.65 23.94C124.463 23.7933 124.35 23.6 124.31 23.36C124.27 23.1067 124.317 22.8267 124.45 22.52L129.73 10.82C129.903 10.4333 130.11 10.16 130.35 10C130.603 9.82667 130.89 9.74 131.21 9.74C131.517 9.74 131.79 9.82667 132.03 10C132.283 10.16 132.497 10.4333 132.67 10.82L137.97 22.52C138.117 22.8267 138.17 23.1067 138.13 23.36C138.09 23.6133 137.977 23.8133 137.79 23.96C137.603 24.0933 137.357 24.16 137.05 24.16C136.677 24.16 136.383 24.0733 136.17 23.9C135.97 23.7133 135.79 23.4333 135.63 23.06L134.33 20.04L135.41 20.74H126.97L128.05 20.04L126.77 23.06C126.597 23.4467 126.417 23.7267 126.23 23.9C126.043 24.0733 125.777 24.16 125.43 24.16ZM131.17 12.68L128.37 19.34L127.85 18.7H134.53L134.03 19.34L131.21 12.68H131.17ZM143.195 24.2C142.342 24.2 141.588 23.9933 140.935 23.58C140.295 23.1667 139.795 22.58 139.435 21.82C139.075 21.0467 138.895 20.14 138.895 19.1C138.895 18.0467 139.075 17.1467 139.435 16.4C139.795 15.64 140.295 15.0533 140.935 14.64C141.588 14.2267 142.342 14.02 143.195 14.02C144.008 14.02 144.715 14.22 145.315 14.62C145.928 15.02 146.342 15.5467 146.555 16.2H146.335V11C146.335 10.5867 146.442 10.2733 146.655 10.06C146.868 9.84667 147.175 9.74 147.575 9.74C147.975 9.74 148.282 9.84667 148.495 10.06C148.722 10.2733 148.835 10.5867 148.835 11V22.88C148.835 23.2933 148.728 23.6133 148.515 23.84C148.302 24.0533 147.995 24.16 147.595 24.16C147.195 24.16 146.888 24.0533 146.675 23.84C146.462 23.6133 146.355 23.2933 146.355 22.88V21.32L146.575 21.92C146.375 22.6133 145.968 23.1667 145.355 23.58C144.742 23.9933 144.022 24.2 143.195 24.2ZM143.895 22.3C144.388 22.3 144.822 22.18 145.195 21.94C145.568 21.7 145.855 21.3467 146.055 20.88C146.268 20.4 146.375 19.8067 146.375 19.1C146.375 18.0333 146.148 17.24 145.695 16.72C145.242 16.1867 144.642 15.92 143.895 15.92C143.402 15.92 142.968 16.04 142.595 16.28C142.222 16.5067 141.928 16.86 141.715 17.34C141.515 17.8067 141.415 18.3933 141.415 19.1C141.415 20.1533 141.642 20.9533 142.095 21.5C142.548 22.0333 143.148 22.3 143.895 22.3ZM154.987 24.16C154.654 24.16 154.361 24.0733 154.107 23.9C153.867 23.7267 153.667 23.46 153.507 23.1L150.327 15.72C150.207 15.4267 150.161 15.1533 150.187 14.9C150.227 14.6467 150.347 14.4467 150.547 14.3C150.761 14.14 151.047 14.06 151.407 14.06C151.714 14.06 151.961 14.1333 152.147 14.28C152.334 14.4133 152.501 14.6733 152.647 15.06L155.347 21.8H154.747L157.527 15.04C157.674 14.6667 157.841 14.4133 158.027 14.28C158.227 14.1333 158.494 14.06 158.827 14.06C159.121 14.06 159.354 14.14 159.527 14.3C159.701 14.4467 159.807 14.6467 159.847 14.9C159.887 15.14 159.841 15.4067 159.707 15.7L156.467 23.1C156.321 23.46 156.121 23.7267 155.867 23.9C155.627 24.0733 155.334 24.16 154.987 24.16ZM162.414 24.14C162.014 24.14 161.708 24.02 161.494 23.78C161.281 23.54 161.174 23.2067 161.174 22.78V15.44C161.174 15 161.281 14.6667 161.494 14.44C161.708 14.2 162.014 14.08 162.414 14.08C162.814 14.08 163.121 14.2 163.334 14.44C163.561 14.6667 163.674 15 163.674 15.44V22.78C163.674 23.2067 163.568 23.54 163.354 23.78C163.141 24.02 162.828 24.14 162.414 24.14ZM162.414 12.22C161.948 12.22 161.581 12.1067 161.314 11.88C161.061 11.64 160.934 11.3133 160.934 10.9C160.934 10.4733 161.061 10.1467 161.314 9.92C161.581 9.69333 161.948 9.58 162.414 9.58C162.894 9.58 163.261 9.69333 163.514 9.92C163.768 10.1467 163.894 10.4733 163.894 10.9C163.894 11.3133 163.768 11.64 163.514 11.88C163.261 12.1067 162.894 12.22 162.414 12.22ZM169.452 24.2C168.879 24.2 168.272 24.14 167.632 24.02C166.992 23.9 166.419 23.6933 165.912 23.4C165.699 23.2667 165.545 23.1133 165.452 22.94C165.372 22.7533 165.339 22.5733 165.352 22.4C165.379 22.2133 165.445 22.0533 165.552 21.92C165.672 21.7867 165.819 21.7 165.992 21.66C166.179 21.62 166.379 21.6533 166.592 21.76C167.125 22.0133 167.625 22.1933 168.092 22.3C168.559 22.3933 169.019 22.44 169.472 22.44C170.112 22.44 170.585 22.3333 170.892 22.12C171.212 21.8933 171.372 21.6 171.372 21.24C171.372 20.9333 171.265 20.7 171.052 20.54C170.852 20.3667 170.545 20.24 170.132 20.16L168.132 19.78C167.305 19.62 166.672 19.32 166.232 18.88C165.805 18.4267 165.592 17.8467 165.592 17.14C165.592 16.5 165.765 15.9467 166.112 15.48C166.472 15.0133 166.965 14.6533 167.592 14.4C168.219 14.1467 168.939 14.02 169.752 14.02C170.339 14.02 170.885 14.0867 171.392 14.22C171.912 14.34 172.412 14.5333 172.892 14.8C173.092 14.9067 173.225 15.0467 173.292 15.22C173.372 15.3933 173.392 15.5733 173.352 15.76C173.312 15.9333 173.232 16.0933 173.112 16.24C172.992 16.3733 172.839 16.46 172.652 16.5C172.479 16.5267 172.279 16.4867 172.052 16.38C171.639 16.1667 171.239 16.0133 170.852 15.92C170.479 15.8267 170.119 15.78 169.772 15.78C169.119 15.78 168.632 15.8933 168.312 16.12C168.005 16.3467 167.852 16.6467 167.852 17.02C167.852 17.3 167.945 17.5333 168.132 17.72C168.319 17.9067 168.605 18.0333 168.992 18.1L170.992 18.48C171.859 18.64 172.512 18.9333 172.952 19.36C173.405 19.7867 173.632 20.36 173.632 21.08C173.632 22.0533 173.252 22.82 172.492 23.38C171.732 23.9267 170.719 24.2 169.452 24.2ZM179.698 24.2C178.684 24.2 177.804 23.9933 177.058 23.58C176.311 23.1667 175.731 22.58 175.318 21.82C174.904 21.0467 174.698 20.14 174.698 19.1C174.698 18.3133 174.811 17.6133 175.038 17C175.278 16.3733 175.618 15.84 176.058 15.4C176.498 14.9467 177.024 14.6067 177.638 14.38C178.251 14.14 178.938 14.02 179.698 14.02C180.711 14.02 181.591 14.2267 182.338 14.64C183.084 15.0533 183.664 15.64 184.078 16.4C184.491 17.16 184.698 18.06 184.698 19.1C184.698 19.8867 184.578 20.5933 184.338 21.22C184.111 21.8467 183.778 22.3867 183.338 22.84C182.898 23.28 182.371 23.62 181.758 23.86C181.144 24.0867 180.458 24.2 179.698 24.2ZM179.698 22.3C180.191 22.3 180.624 22.18 180.998 21.94C181.371 21.7 181.658 21.3467 181.858 20.88C182.071 20.4 182.178 19.8067 182.178 19.1C182.178 18.0333 181.951 17.24 181.498 16.72C181.044 16.1867 180.444 15.92 179.698 15.92C179.204 15.92 178.771 16.04 178.398 16.28C178.024 16.5067 177.731 16.86 177.518 17.34C177.318 17.8067 177.218 18.3933 177.218 19.1C177.218 20.1533 177.444 20.9533 177.898 21.5C178.351 22.0333 178.951 22.3 179.698 22.3ZM187.641 24.16C187.228 24.16 186.908 24.0533 186.681 23.84C186.468 23.6133 186.361 23.2933 186.361 22.88V15.32C186.361 14.9067 186.468 14.5933 186.681 14.38C186.894 14.1667 187.194 14.06 187.581 14.06C187.968 14.06 188.268 14.1667 188.481 14.38C188.694 14.5933 188.801 14.9067 188.801 15.32V16.58H188.601C188.788 15.78 189.154 15.1733 189.701 14.76C190.248 14.3467 190.974 14.1 191.881 14.02C192.161 13.9933 192.381 14.0667 192.541 14.24C192.714 14.4 192.814 14.6533 192.841 15C192.868 15.3333 192.788 15.6067 192.601 15.82C192.428 16.02 192.161 16.14 191.801 16.18L191.361 16.22C190.548 16.3 189.934 16.5533 189.521 16.98C189.108 17.3933 188.901 17.98 188.901 18.74V22.88C188.901 23.2933 188.794 23.6133 188.581 23.84C188.368 24.0533 188.054 24.16 187.641 24.16Z" fill="#3E7AAE"/>
<defs>
<clipPath id="clip0_187_18031">
<rect width="29" height="35" fill="white"/>
</clipPath>
<clipPath id="clip1_187_18031">
<rect width="130" height="35" fill="white"/>
</clipPath>
</defs>
</svg>
