<svg width="107" height="14" viewBox="0 0 107 14" fill="none" xmlns="http://www.w3.org/2000/svg">
<g clip-path="url(#clip0_324_25566)">
<path d="M29.0485 7.10771C27.1946 7.10771 26.2726 8.47145 26.2726 10.3122C26.2726 12.2281 27.1583 13.5671 29.0485 13.5671C30.9402 13.5671 31.8232 12.2281 31.8232 10.3122C31.8232 8.47145 30.9023 7.10771 29.0485 7.10771ZM29.0485 12.3142C28.5557 12.3142 28.3366 11.8719 28.3366 10.3117C28.3366 8.88699 28.4827 8.35956 29.0485 8.35956C29.6132 8.35956 29.7597 8.88699 29.7597 10.3117C29.7597 11.8735 29.5391 12.3142 29.0485 12.3142ZM33.105 6.58186V7.27056H32.2939V8.6716H33.105V13.4337H35.0944V8.6716H36.1771V7.27056H35.0944V6.64542C35.0944 6.27086 35.2836 6.06599 35.8073 6.06599C35.9176 6.06599 36.0647 6.09015 36.1766 6.11589V4.5935C35.8556 4.55672 35.5604 4.5189 35.169 4.5189C33.8552 4.51943 33.105 5.07154 33.105 6.58186ZM11.896 9.00203C11.896 7.63934 10.6568 7.12504 9.46377 7.12504C8.33537 7.12504 7.22903 7.61465 7.00892 8.83025L8.73935 9.18695C8.76088 8.82657 8.91375 8.37742 9.39128 8.37742C9.73484 8.37742 9.9061 8.6217 9.9061 8.98943V9.51948C8.59173 9.67182 6.7804 10.1457 6.7368 11.75C6.70633 12.8831 7.46228 13.5535 8.45409 13.5535C9.04088 13.5535 9.6282 13.2293 9.96756 12.8716C9.97964 12.974 9.99277 13.2651 10.0301 13.4353H12.0809C12.0058 13.3512 11.8955 13.1406 11.8955 12.4408L11.896 9.00203ZM9.90662 11.864C9.73747 12.0867 9.49476 12.247 9.26835 12.247C8.91165 12.247 8.69102 12.0232 8.69102 11.5935C8.69102 10.8071 9.21109 10.5428 9.9061 10.4761L9.90662 11.864ZM16.7747 7.12399C15.9988 7.12399 15.4509 7.48332 15.0412 7.90095H15.0154L15.0054 7.27056H13.0586V13.4342H15.048V9.0262C15.2298 8.79348 15.4714 8.64324 15.6952 8.64324C16.0277 8.64324 16.1538 8.83813 16.1538 9.18958V13.4332H18.1432V8.55813C18.1437 7.71288 17.6457 7.12399 16.7747 7.12399ZM24.8353 7.27003H22.857L21.3934 9.13284H21.3692V4.69173H19.3788V13.4337H21.3692V11.2263L21.7874 10.7451H21.8116L22.7813 13.4337H24.8448L23.1711 9.16751L24.8353 7.27003ZM4.61659 8.88699V8.8187C5.25013 8.57127 6.04337 7.96977 6.04337 6.82718C6.04337 5.61998 5.02529 4.69121 3.47663 4.69121H0.0205078V13.4342H3.38837C5.0484 13.4342 6.25088 12.5916 6.25088 11.0955C6.25088 9.97494 5.56375 9.19903 4.61659 8.88699ZM2.16804 6.23882H2.94185C3.44406 6.23882 4.00668 6.37383 4.00668 7.20804C4.00668 7.72497 3.69096 8.15416 2.89194 8.15416H2.16804V6.23882ZM2.97862 11.8141H2.16804V9.6277H2.97862C3.69096 9.6277 4.09336 10.0579 4.09336 10.7088C4.09336 11.6045 3.45667 11.8141 2.97862 11.8141ZM78.4858 12.4408V9.00203C78.4858 7.63934 77.2477 7.12504 76.0552 7.12504C74.9257 7.12504 73.8194 7.61465 73.5987 8.83025L75.3307 9.18695C75.3512 8.82657 75.503 8.37742 75.9821 8.37742C76.3236 8.37742 76.4975 8.6217 76.4975 8.98943V9.51948C75.1815 9.67182 73.3686 10.1457 73.3261 11.75C73.2956 12.8831 74.051 13.5535 75.0444 13.5535C75.6312 13.5535 76.217 13.2293 76.559 12.8716C76.5695 12.974 76.5831 13.2651 76.6194 13.4353H78.6692C78.5972 13.3502 78.4858 13.1406 78.4858 12.4408ZM76.4985 11.864C76.3268 12.0867 76.0851 12.247 75.8592 12.247C75.502 12.247 75.2814 12.0232 75.2814 11.5935C75.2814 10.8071 75.8014 10.5428 76.4975 10.4761L76.4985 11.864ZM56.7967 7.10771C54.9665 7.10771 54.0566 8.58125 54.0566 10.3253C54.0566 12.0321 54.9166 13.5676 56.8198 13.5676C57.3565 13.5839 57.8846 13.4298 58.3284 13.1275C58.7721 12.8251 59.1087 12.39 59.2899 11.8845L57.9487 11.3928C57.85 11.8892 57.445 12.2391 56.9648 12.2391C56.1642 12.2391 56.0187 11.3282 56.0455 10.7792H59.375V10.3616C59.375 8.75355 58.7126 7.10771 56.7967 7.10771ZM57.5327 9.59933H56.046C56.0155 9.01937 56.2183 8.36008 56.7836 8.36008C57.4707 8.36008 57.5521 9.0283 57.5327 9.59933ZM64.7402 7.27056H66.7285V13.4342H64.7402V7.27056ZM64.7402 4.69121H66.7285V6.45945H64.7402V4.69121ZM70.4678 8.36008C70.7882 8.36008 70.9469 8.53239 71.0446 8.77667C71.1318 9.01044 71.1434 9.30515 71.1434 9.55152H72.8396C72.8396 8.93742 72.5197 7.10876 70.409 7.10876C68.5299 7.10876 67.5974 8.79138 67.5974 10.4729C67.5974 11.9948 68.5288 13.5682 70.3228 13.5682C71.7722 13.5682 72.6316 12.7828 72.7798 11.2846L71.2321 11.0629C71.2321 11.5299 71.1707 12.2396 70.4699 12.2396C69.9556 12.2396 69.7344 11.7873 69.7344 10.3984C69.7308 9.17066 69.8059 8.36008 70.4678 8.36008ZM39.6348 4.69173L37.5845 13.4342H39.4998L39.8812 11.667H41.9074L42.2515 13.4342H44.4006L42.5325 4.69173H39.6348ZM40.1885 10.1194L40.9271 6.55769H40.9713L41.6001 10.1194H40.1885ZM62.1724 8.10478H62.1393L62.1193 7.27003H60.194V13.4337H62.1855V9.44226C62.4187 9.16436 62.7686 8.96526 63.2766 8.96526C63.6191 8.96526 63.8613 9.04826 64.0877 9.13547V7.12347C63.3202 7.12399 62.5779 7.4539 62.1724 8.10478ZM51.8045 7.12399C50.9714 7.12399 50.3772 7.57262 50.0295 7.94823H50.0037C49.8156 7.47281 49.4122 7.12399 48.8075 7.12399C48.0663 7.12399 47.4427 7.50696 47.0267 7.89885H47.0015L46.991 7.27108H45.0494V13.4347H47.0015V9.03881C47.1691 8.81187 47.468 8.659 47.6765 8.659C48.0458 8.659 48.1435 8.87963 48.1435 9.21164V13.4347H50.0967V9.03881C50.2259 8.8686 50.5101 8.659 50.777 8.659C51.1389 8.659 51.2398 8.87963 51.2398 9.21164V13.4347H53.1914V8.52083C53.1914 7.66981 52.6314 7.12399 51.8045 7.12399ZM90.716 3.30697C91.5051 3.61882 92.2851 3.95306 93.0552 4.30929C90.6086 5.30223 88.2414 6.48064 85.9744 7.83423C85.2095 7.43331 84.4331 7.05474 83.6461 6.699C85.9083 5.38128 88.2725 4.24697 90.716 3.30697ZM87.7967 2.27576C85.2593 3.07968 82.8073 4.13174 80.4763 5.41668C81.217 5.6846 81.9514 5.96985 82.6748 6.27507C84.9331 4.94655 87.3114 3.83356 89.7783 2.9508C89.1231 2.71033 88.4624 2.48525 87.7967 2.27576Z" fill="#0067B1"/>
<path d="M96.0321 3.20764C94.0272 2.23763 91.9501 1.42427 89.8196 0.774856C89.0684 0.991291 88.3235 1.22716 87.586 1.48405C89.7795 2.13375 91.918 2.95673 93.9813 3.9452C94.6595 3.68448 95.3432 3.43856 96.0321 3.20764ZM99.296 2.23474C97.2432 1.33991 95.1289 0.593087 92.9695 0C92.2812 0.142438 91.5963 0.301131 90.9155 0.475946C93.0574 1.10203 95.1475 1.89363 97.1668 2.84359C97.8721 2.62526 98.582 2.42226 99.296 2.23474ZM104.536 3.99511C99.4408 5.71343 94.6238 8.16686 90.2378 11.2777C91.325 11.9463 92.387 12.655 93.4218 13.4021C97.5547 10.1227 102.116 7.42329 106.98 5.37882C106.179 4.89395 105.364 4.43251 104.536 3.99511ZM101.005 2.31721C95.7115 3.71948 90.6837 5.9798 86.1213 9.0083C87.14 9.50917 88.141 10.0451 89.1225 10.6153C93.5924 7.519 98.521 5.14444 103.728 3.57852C102.834 3.12958 101.926 2.70893 101.005 2.31721ZM95.0971 12.8521C95.0971 12.5448 95.3555 12.2947 95.6733 12.2947C95.9912 12.2947 96.2496 12.5448 96.2496 12.8521C96.2496 13.1652 95.9912 13.4153 95.6733 13.4153C95.3555 13.4153 95.0971 13.1652 95.0971 12.8521ZM95.2058 12.8521C95.2058 13.1079 95.4138 13.3049 95.6733 13.3049C95.9302 13.3049 96.1388 13.1079 96.1388 12.8521C96.1388 12.6047 95.9308 12.4056 95.6733 12.4056C95.4144 12.4056 95.2058 12.6047 95.2058 12.8521Z" fill="#E31836"/>
<path d="M95.9601 13.1668H95.8525L95.6675 12.8784H95.5535V13.1668H95.459V12.5411H95.7395C95.7942 12.5375 95.8489 12.5481 95.8982 12.5721C95.9205 12.5868 95.9388 12.607 95.9512 12.6307C95.9636 12.6544 95.9697 12.6809 95.9691 12.7076C95.9691 12.8295 95.8798 12.8757 95.7658 12.8789L95.9601 13.1668ZM95.6607 12.8017C95.75 12.8017 95.8735 12.8169 95.8735 12.705C95.8735 12.6236 95.802 12.6125 95.7211 12.6125H95.5551V12.8006L95.6607 12.8017Z" fill="#E31836"/>
</g>
<defs>
<clipPath id="clip0_324_25566">
<rect width="107" height="13.5676" fill="white"/>
</clipPath>
</defs>
</svg>
