<svg width="49" height="26" viewBox="0 0 49 26" fill="none" xmlns="http://www.w3.org/2000/svg">
<g clip-path="url(#clip0_324_25670)">
<path fill-rule="evenodd" clip-rule="evenodd" d="M6.33446 25.2783H4.14154V19.0775H0.962646V17.7559H9.51442V19.0775H6.33446V25.2783ZM12.389 21.0585V19.0539H15.1359C16.4299 19.0539 16.6792 19.64 16.6792 20.0364C16.6792 20.7778 16.1208 21.0585 14.9749 21.0585H12.389ZM10.2441 25.2783H12.3888V22.2963H14.6711C14.6711 22.2963 16.4837 24.932 16.6294 25.2783H19.623L17.2581 22.2963C18.2858 22.0456 18.9525 20.8011 18.8714 19.8789C18.8127 19.2269 18.3592 17.7559 15.5612 17.7559H10.2441V25.2783ZM28.1739 19.0775H22.5924V20.6809H27.7196V21.9992H22.5924V23.957H28.4233V25.2783H20.4461V17.7559H28.1739V19.0775ZM36.0906 17.7559H38.141V25.2783H35.9433L31.6402 19.9145H31.611V25.2783H29.5603V17.7559H31.8762L36.0614 22.9943H36.0906V17.7559ZM41.4362 19.0539H42.9911C43.9342 19.0539 45.4194 19.2302 45.4194 21.4547C45.4194 22.6903 44.8178 23.9795 43.0203 23.9795H41.4362V19.0539ZM39.104 25.2783H43.6636C47.1431 25.2783 48.0372 22.9528 48.0372 21.339C48.0372 19.9118 47.3054 17.7559 43.7499 17.7559H39.104V25.2783ZM31.645 3.24036C31.8794 3.24057 32.1085 3.17126 32.3035 3.04121C32.4984 2.91115 32.6504 2.72619 32.7402 2.50974C32.83 2.29328 32.8535 2.05505 32.8079 1.8252C32.7622 1.59534 32.6494 1.3842 32.4837 1.21847C32.3181 1.05275 32.1069 0.939898 31.8771 0.8942C31.6472 0.848502 31.409 0.872009 31.1925 0.961749C30.9761 1.05149 30.7911 1.20343 30.661 1.39834C30.5309 1.59325 30.4615 1.82237 30.4617 2.05671C30.4617 2.37057 30.5864 2.67155 30.8083 2.8935C31.0302 3.11546 31.3312 3.24022 31.645 3.24036ZM20.9274 3.98955C20.9274 3.98955 26.7264 1.86761 29.1307 2.62188C31.536 3.3767 31.6145 5.38935 31.3306 6.39353C31.0654 7.33906 30.5884 12.1007 14.6519 15.2129L31.0643 15.5089H13.3833C13.3833 15.5089 22.6243 12.1939 25.3116 8.70431C25.3116 8.70458 30.3103 3.0467 20.9274 3.98955Z" fill="#264A8E"/>
<path fill-rule="evenodd" clip-rule="evenodd" d="M24.2587 3.97482C24.2587 3.97482 21.6506 5.01115 20.8953 5.57712C20.8953 5.57712 23.6617 4.57187 25.328 4.97928C26.8309 5.34757 26.5531 6.55104 26.5531 6.55104C26.5531 6.55104 28.3962 5.6548 28.2623 4.87133C27.9479 3.04858 24.2587 3.97482 24.2587 3.97482Z" fill="#264A8E"/>
</g>
<defs>
<clipPath id="clip0_324_25670">
<rect width="47.2826" height="25" fill="white" transform="translate(0.858643 0.507568)"/>
</clipPath>
</defs>
</svg>
