<svg width="65" height="20" viewBox="0 0 65 20" fill="none" xmlns="http://www.w3.org/2000/svg">
<g clip-path="url(#clip0_324_25559)">
<path d="M35.1918 9.52021C39.2167 7.69304 39.812 1.73047 34.0868 1.73047H27.4566L25.0064 6.53899H26.1595L23.2288 18.0313H30.9158C36.5239 18.0793 39.046 11.4699 35.1918 9.52021ZM30.9158 13.8479H28.994L29.7147 11.2514H31.5403C33.7023 11.6841 32.3572 13.944 30.9158 13.8479ZM32.0689 8.31804H30.4354L30.9158 6.05807H32.7414C34.5054 6.49087 32.9818 8.41428 32.0689 8.31804Z" fill="#005FAF"/>
<path d="M50.9308 7.87159L53.4478 3.42445L50.042 1.64636L49.5977 2.19512C47.7604 1.2217 38.1393 2.56574 37.5369 12.0646C37.897 20.033 46.8182 18.5997 47.6933 18.0941L50.1469 13.0175C47.7438 14.6017 42.8233 15.3623 42.6151 10.6034C43.0467 6.67908 47.6761 5.21356 50.9308 7.87159ZM63.491 1.73047H55.7531L53.2935 6.39504H54.5571L48.7257 18.0313H54.3701L55.529 15.2247H58.9938L59.0802 18.0313H64.2761L63.491 1.73047ZM57.0988 11.4458L58.9937 6.91885L59.08 11.4458H57.0988Z" fill="#005FAF"/>
<path d="M15.1693 17.2532L15.4699 17.1659L15.1403 16.71L15.1693 17.2532ZM10.2345 17.1756L10.1763 17.5831C10.3259 17.5685 10.5101 17.6976 10.5835 17.4085C10.578 17.1832 10.4067 17.1708 10.2345 17.1756ZM12.6293 17.1659C12.6044 17.0549 12.5118 16.9732 12.2802 17.0496L12.3578 17.4666C12.548 17.4244 12.6458 17.3118 12.6293 17.1659ZM7.21928 16.8245L7.12671 17.1952C7.27549 17.2014 7.44976 17.3221 7.54853 17.1025C7.55514 16.9649 7.56079 16.8278 7.21928 16.8245ZM12.4257 17.7773L12.4936 18.2043C12.6524 18.2083 12.7974 18.1127 12.7553 17.9132C12.7148 17.7213 12.5538 17.7516 12.4257 17.7773Z" fill="#005FAF"/>
<path d="M18.7307 1.95035C13.5968 -0.667283 7.4655 -0.594483 2.57389 1.83618C0.0514917 6.28043 -0.0288228 12.4986 2.57389 18.0061C7.96295 20.7355 13.9233 20.5557 18.7686 18.1202C21.0458 13.4443 21.4219 7.81778 18.7307 1.95035ZM10.0601 15.2209L9.75577 15.2243C9.68042 14.3827 9.47942 13.6754 9.04823 13.1341C7.07095 10.6524 3.02905 12.5208 4.06763 8.30325C4.60765 6.1471 10.7673 4.87544 10.0601 15.2209ZM4.07493 11.0553C4.50667 11.9348 7.21161 12.0789 8.15058 12.7522C9.64005 13.8201 9.42625 15.2248 9.42625 15.2248H9.07496C8.3834 13.1032 6.44249 14.783 4.88786 14.2116C3.91182 13.8642 3.20318 12.3581 4.07493 11.0553ZM9.00319 17.9714L9.14866 16.8167L9.41041 16.8362L9.294 18.1073C9.17663 18.6672 8.34248 18.5923 8.23724 18.0587L8.37293 16.7391L8.68317 16.7878L8.54747 17.8938C8.56469 18.2599 8.93155 18.238 9.00319 17.9714ZM7.61029 18.2868L7.3119 18.2147C7.34689 17.9679 7.63935 17.4657 7.06131 17.4657L6.9004 18.122L6.57116 18.0602L6.92093 16.4847C7.77587 16.5779 7.85068 16.816 7.86762 17.0716C7.83387 17.2699 7.78111 17.4083 7.61042 17.4423C7.81018 17.6237 7.61277 18.004 7.61029 18.2868ZM5.71511 16.5221C5.63287 16.6313 5.46824 17.0128 5.44441 17.3168C5.41906 17.639 5.72834 17.5712 5.80534 17.5335C5.86747 17.5033 5.91362 17.2445 5.91362 17.2445L5.69706 17.1723L5.76925 16.9557L6.25665 17.1183L6.02204 17.9312L5.82353 17.8769L5.84158 17.7504C5.59857 17.8613 5.15374 17.7781 5.10152 17.4976C5.04931 17.2721 5.20746 16.5887 5.46246 16.2693C5.71029 15.9588 6.3141 16.2623 6.32884 16.45C6.34344 16.6369 6.26974 16.8473 6.26974 16.8473L6.04243 16.8044C6.04243 16.8044 6.05634 16.7369 6.07618 16.6304C6.09712 16.5177 5.80328 16.4047 5.71511 16.5221ZM10.1473 17.8451L10.0892 18.5439L9.84683 18.5343L9.93403 16.8749C10.5392 16.8874 10.8861 16.9713 10.8745 17.399C10.8384 17.9833 10.3656 17.8519 10.1473 17.8451ZM10.7505 15.2246H10.3451C10.3092 13.7877 10.5852 11.1593 9.83085 9.22497C9.25928 7.75863 7.81279 7.09901 7.49222 5.9145C6.98471 4.03962 7.84847 2.01101 10.7505 1.8548C13.2665 2.11332 14.0394 4.05727 13.6103 5.86721C12.8725 7.67686 12.1345 7.41683 11.2158 9.21945C10.4654 11.1518 10.7511 13.6834 10.7505 15.2246ZM15.2469 17.884L14.9657 17.9811L14.8784 16.3121L15.2081 16.2248L16.0225 17.6026L15.7995 17.7482L15.5279 17.3602L15.2177 17.4766L15.2469 17.884ZM11.9667 15.2246H11.6424C11.9097 11.5342 16.5432 12.3359 16.9667 11.0553C17.6991 12.3249 17.4358 13.3954 16.6711 13.9441C14.7708 15.3083 12.9487 12.9346 11.9667 15.2246ZM13.6861 17.0885L13.8316 17.8551C13.9221 18.0317 13.9835 17.999 14.1224 17.9812C14.2834 17.8646 14.2498 17.751 14.2194 17.6028L14.5005 17.564C14.5738 18.1194 14.31 18.1761 14.1127 18.2141C13.6897 18.2444 13.6067 18.162 13.4923 17.6125C13.4256 17.1422 13.3104 16.6456 13.7055 16.5549C14.3541 16.4557 14.3158 16.7479 14.3745 16.9527L14.0933 17.0013C14.0484 16.8254 13.9838 16.7556 13.8412 16.7686C13.7113 16.8283 13.658 16.9249 13.6861 17.0885ZM13.0947 17.884C13.1082 18.1257 13.0262 18.2862 12.8716 18.3401L12.2123 18.4759L11.9506 16.8749C12.0859 16.8528 12.7492 16.6096 12.9104 17.0497C12.9898 17.3185 12.9075 17.4148 12.8134 17.5348C12.9918 17.5921 13.052 17.7311 13.0947 17.884ZM11.4016 9.84942C12.8704 5.7103 16.2314 6.44175 16.9768 8.30339C17.998 12.0389 14.7096 11.0145 12.6033 12.5463C11.8072 13.2393 11.3882 14.0343 11.382 15.2395H11.0211C10.9995 12.812 10.9602 11.0931 11.4016 9.84942Z" fill="#005FAF"/>
</g>
<defs>
<clipPath id="clip0_324_25559">
<rect width="63.7209" height="20" fill="white" transform="translate(0.639648)"/>
</clipPath>
</defs>
</svg>
