<svg width="65" height="26" viewBox="0 0 65 26" fill="none" xmlns="http://www.w3.org/2000/svg">
<g clip-path="url(#clip0_324_25577)">
<path d="M0.408936 0.567627H64.7042V25.5676H0.408936V0.567627Z" fill="#5E3678"/>
<path d="M23.1119 12.4766C23.1119 18.4311 18.2947 23.2482 12.3402 23.2482C6.38573 23.2482 1.5686 18.4311 1.5686 12.4766C1.5686 6.52208 6.38573 1.70496 12.3402 1.70496C18.2724 1.70496 23.1119 6.52208 23.1119 12.4766Z" fill="white"/>
<path d="M12.3179 23.2929C18.2916 23.2929 23.1342 18.4503 23.1342 12.4766C23.1342 6.50299 18.2916 1.6604 12.3179 1.6604C6.3443 1.6604 1.50171 6.50299 1.50171 12.4766C1.50171 18.4503 6.3443 23.2929 12.3179 23.2929Z" fill="white"/>
<path d="M12.3179 12.4766L16.3321 10.2465L22.7327 15.465L12.3179 12.4766Z" fill="url(#paint0_linear_324_25577)"/>
<path d="M16.3323 10.2465L22.7328 15.465L22.0861 15.1305L16.3323 10.4249V10.2465Z" fill="#E53121"/>
<path d="M12.3179 12.4766L16.3321 10.2465L16.3098 10.4249L12.6747 12.432L12.3179 12.4766Z" fill="#F08465"/>
<path d="M22.7327 15.465L12.3179 12.4766L12.697 12.432L22.0859 15.1305L22.7327 15.465Z" fill="#B82B18"/>
<path d="M12.3179 12.4766L16.3321 10.2464L15.3063 2.06177L12.3179 12.4766Z" fill="#F5B0AC"/>
<path d="M15.3063 2.06177L12.3179 12.4766L12.5632 12.1867L15.2617 2.77542L15.3063 2.06177Z" fill="#D47785"/>
<path d="M16.3322 10.2464L15.3063 2.06177L15.2617 2.77542L16.1984 10.1572L16.3322 10.2464Z" fill="#D99E9B"/>
<path d="M12.3179 12.4766L16.3321 10.2464L16.176 10.1572L12.5409 12.1644L12.3179 12.4766Z" fill="#F9D1CD"/>
<path d="M14.5481 16.4909L9.32959 22.8915L9.66411 22.2447L14.3697 16.4686L14.5481 16.4909Z" fill="#F9F9FC"/>
<path d="M12.3179 12.4767L14.548 16.491L14.3696 16.4687L12.3625 12.8335L12.3179 12.4767Z" fill="#F3F2F9"/>
<path d="M9.32959 22.8915L12.318 12.4767L12.3626 12.8558L9.66411 22.2447L9.32959 22.8915Z" fill="#DCDAEE"/>
<path d="M12.3179 12.4767L14.548 16.491L22.7327 15.4651L12.3179 12.4767Z" fill="#2B2B85"/>
<path d="M22.7327 15.4651L12.3179 12.4767L12.6078 12.722L22.019 15.4205L22.7327 15.4651Z" fill="#484293"/>
<path d="M14.5481 16.4909L22.7328 15.465L22.0191 15.4204L14.6373 16.3571L14.5481 16.4909Z" fill="#24236F"/>
<path d="M12.3179 12.4767L14.548 16.491L14.6372 16.3348L12.6301 12.6997L12.3179 12.4767Z" fill="#8F88C0"/>
<path d="M12.3179 12.4767L8.30361 14.7068L1.90308 9.48828L12.3179 12.4767Z" fill="url(#paint1_linear_324_25577)"/>
<path d="M8.30361 14.7068L1.90308 9.48828L2.54982 9.8228L8.32591 14.5284L8.30361 14.7068Z" fill="#BBB7DB"/>
<path d="M12.318 12.4767L8.30371 14.7068L8.32601 14.5284L11.9612 12.5213L12.318 12.4767Z" fill="#B0AAD4"/>
<path d="M1.90308 9.48828L12.3179 12.4767L11.9388 12.5213L2.54982 9.8228L1.90308 9.48828Z" fill="#D1CCE6"/>
<path d="M12.318 12.4767L8.30371 14.7068L9.32958 22.8915L12.318 12.4767Z" fill="#FFDD00"/>
<path d="M9.32959 22.8915L12.318 12.4767L12.0727 12.7666L9.39649 22.1778L9.32959 22.8915Z" fill="#DBBB85"/>
<path d="M8.30371 14.7068L9.32958 22.8914L9.37418 22.1778L8.43752 14.796L8.30371 14.7068Z" fill="#EBC536"/>
<path d="M12.318 12.4767L8.30371 14.7068L8.45982 14.796L12.095 12.7889L12.318 12.4767Z" fill="#FFE167"/>
<path d="M12.3178 12.4766L10.0876 8.4623L15.3062 2.06177L12.3178 12.4766Z" fill="#E53121"/>
<path d="M10.0876 8.4623L15.3062 2.06177L14.9717 2.70851L10.2661 8.48461L10.0876 8.4623Z" fill="#EA583C"/>
<path d="M12.3178 12.4767L10.0876 8.4624L10.2661 8.4847L12.2732 12.1199L12.3178 12.4767Z" fill="#D42F1E"/>
<path d="M15.3062 2.06177L12.3178 12.4766L12.2732 12.0975L14.9717 2.70851L15.3062 2.06177Z" fill="#C22C1A"/>
<path d="M12.3179 12.4767L10.0877 8.4624L1.90308 9.48827L12.3179 12.4767Z" fill="#F3F2F9"/>
<path d="M1.90308 9.48828L12.3179 12.4767L12.028 12.2314L2.61672 9.55519L1.90308 9.48828Z" fill="#F9F8FB"/>
<path d="M10.0877 8.4624L1.90308 9.48827L2.61672 9.53288L9.99853 8.59621L10.0877 8.4624Z" fill="#DCDAEE"/>
<path d="M12.3179 12.4767L10.0877 8.4624L9.99854 8.61851L12.0057 12.2537L12.3179 12.4767Z" fill="#F9F9FC"/>
<path d="M20.1235 4.96097C18.7854 3.57827 17.1351 2.597 15.3064 2.06177L16.3323 10.2464L20.1235 4.96097Z" fill="url(#paint2_linear_324_25577)"/>
<path d="M15.3064 2.06177L16.3323 10.2464L16.4215 9.8673L15.4625 2.10637C15.4179 2.10637 15.351 2.08407 15.3064 2.06177Z" fill="#8F88C0"/>
<path d="M20.0119 4.84949L16.4437 9.86733L16.3545 10.2465L20.1234 4.93869C20.0788 4.91639 20.0565 4.87179 20.0119 4.84949Z" fill="#A59FCE"/>
<path d="M20.1235 4.96096C18.7854 3.57827 17.1351 2.597 15.3064 2.06177L15.5071 2.41859C17.1574 2.93153 18.6293 3.84589 19.8559 5.07247L20.1235 4.96096Z" fill="url(#paint3_linear_324_25577)"/>
<path d="M16.3323 10.2465L20.1012 4.93872C21.417 6.29911 22.3537 7.99403 22.822 9.84505L16.3323 10.2465Z" fill="url(#paint4_linear_324_25577)"/>
<path d="M20.1235 4.96106L16.3323 10.2465L16.6222 10.0904L20.2127 5.07257C20.1904 5.02796 20.1458 4.98336 20.1235 4.96106Z" fill="#ED6F50"/>
<path d="M22.7996 9.7113L16.6444 10.0904L16.3545 10.2465L22.8442 9.84511C22.8219 9.80051 22.7996 9.75591 22.7996 9.7113Z" fill="#A62714"/>
<path d="M22.5098 9.73355C22.0638 8.08323 21.2163 6.56673 20.0566 5.29555L20.1235 4.93872C21.4393 6.29911 22.376 7.99403 22.8443 9.84505L22.5098 9.73355Z" fill="url(#paint5_linear_324_25577)"/>
<path d="M16.3323 10.2465L22.822 9.84509C23.268 11.6292 23.268 13.5471 22.7328 15.4428L16.3323 10.2465Z" fill="url(#paint6_linear_324_25577)"/>
<path d="M22.8442 9.86731L16.3545 10.2687L16.7336 10.3802L22.8888 10.0011C22.8665 9.95652 22.8442 9.91191 22.8442 9.86731Z" fill="#D1CEE8"/>
<path d="M22.7328 15.4651C22.7551 15.4204 22.7551 15.3535 22.7774 15.3089L16.7114 10.3803L16.3323 10.2688L22.7328 15.4651Z" fill="#F3F2F9"/>
<path d="M22.532 15.1082C22.978 13.3909 22.978 11.6514 22.5766 10.0234L22.8442 9.86731C23.2902 11.6514 23.2902 13.5694 22.755 15.465L22.532 15.1082Z" fill="url(#paint7_linear_324_25577)"/>
<path d="M4.80227 4.69336C3.46418 5.96455 2.46061 7.59256 1.90308 9.48818L10.0877 8.46232L4.80227 4.69336Z" fill="url(#paint8_linear_324_25577)"/>
<path d="M1.90308 9.48824L10.0877 8.46238L9.70861 8.37317L1.94768 9.33213C1.94768 9.37674 1.92538 9.44364 1.90308 9.48824Z" fill="#FFCB00"/>
<path d="M4.69067 4.78257L9.70851 8.35081L10.0876 8.44001L4.80218 4.69336C4.75758 4.71566 4.73528 4.76026 4.69067 4.78257Z" fill="#FFDD00"/>
<path d="M4.80227 4.69336C3.41958 6.00915 2.43831 7.65946 1.90308 9.48818L2.2599 9.28747C2.77284 7.63716 3.6872 6.16526 4.91378 4.93868C4.93608 4.96098 4.80227 4.69336 4.80227 4.69336Z" fill="#FFF8C7"/>
<path d="M10.0877 8.4624L4.80225 4.69344C6.16264 3.37765 7.85755 2.44099 9.70858 1.97266L10.0877 8.4624Z" fill="url(#paint9_linear_324_25577)"/>
<path d="M4.80225 4.69344L10.11 8.4624L9.9539 8.17248L4.91375 4.58193C4.86915 4.62654 4.82455 4.64884 4.80225 4.69344ZM9.55247 1.99496L9.93159 8.15018L10.0877 8.4401L9.70858 1.97266L9.55247 1.99496Z" fill="#E53121"/>
<path d="M9.57486 2.30718C7.92454 2.75321 6.40804 3.60067 5.13685 4.76035L4.78003 4.69344C6.14042 3.37765 7.83534 2.44099 9.68636 1.97266L9.57486 2.30718Z" fill="url(#paint10_linear_324_25577)"/>
<path d="M10.0879 8.46231L9.70874 1.97257C11.4929 1.52654 13.4108 1.52654 15.3064 2.06178L10.0879 8.46231Z" fill="url(#paint11_linear_324_25577)"/>
<path d="M9.70874 1.97258L10.1102 8.46232L10.2217 8.0832L9.84255 1.92798C9.79795 1.95028 9.75334 1.95028 9.70874 1.97258Z" fill="#1E398E"/>
<path d="M15.3064 2.06181C15.2618 2.03951 15.1949 2.03951 15.1502 2.01721L10.2216 8.08322L10.1101 8.46235L15.3064 2.06181Z" fill="#2F2482"/>
<path d="M14.9496 2.26258C13.2324 1.81654 11.4929 1.81654 9.86485 2.21797L9.70874 1.95035C11.4929 1.50432 13.4108 1.50432 15.3064 2.03956L14.9496 2.26258Z" fill="url(#paint12_linear_324_25577)"/>
<path d="M4.53467 20.0145C5.85046 21.3749 7.52307 22.3785 9.3518 22.8914L8.32593 14.7068L4.53467 20.0145Z" fill="#2B2B85"/>
<path d="M9.32943 22.8914L8.30356 14.7068L8.21436 15.0859L9.19562 22.8468C9.24023 22.8691 9.28483 22.8691 9.32943 22.8914Z" fill="#24236F"/>
<path d="M4.62387 20.1038L8.19212 15.0859L8.28132 14.7068L4.53467 20.0145L4.62387 20.1038Z" fill="#5B549F"/>
<path d="M4.53467 20.0145C5.85046 21.3749 7.52307 22.3785 9.3518 22.8914L9.15108 22.5346C7.50077 22.0217 6.02887 21.1073 4.80229 19.8807L4.53467 20.0145Z" fill="url(#paint13_linear_324_25577)"/>
<path d="M8.30371 14.7068L4.53475 20.0145C3.22402 18.6381 2.28737 16.949 1.81396 15.1082L8.30371 14.7068Z" fill="url(#paint14_linear_324_25577)"/>
<path d="M4.5346 20.0145L8.30356 14.7068L8.01364 14.8629L4.4231 19.903C4.4677 19.9253 4.49 19.9699 4.5346 20.0145Z" fill="#B0AAD4"/>
<path d="M1.83627 15.242L7.99148 14.8629L8.2814 14.7068L1.81396 15.1082C1.81396 15.1528 1.83627 15.1974 1.83627 15.242Z" fill="#DAD8ED"/>
<path d="M2.14849 15.2197C2.59452 16.87 3.44198 18.3865 4.60165 19.6577L4.53475 20.0145C3.22402 18.638 2.28737 16.949 1.81396 15.1082L2.14849 15.2197Z" fill="url(#paint15_linear_324_25577)"/>
<path d="M8.30362 14.7068L1.81388 15.1082C1.36785 13.3241 1.36785 11.4061 1.90309 9.5105L8.30362 14.7068Z" fill="#E53121"/>
<path d="M1.81389 15.1083L8.30363 14.7068L7.9245 14.5953L1.76929 14.9522C1.79159 14.9968 1.79159 15.0414 1.81389 15.1083Z" fill="#CA2D0A"/>
<path d="M1.9031 9.48828C1.8808 9.53288 1.8808 9.59979 1.8585 9.64439L7.92451 14.5953L8.30363 14.7068L1.9031 9.48828ZM2.10381 9.84511C1.65778 11.5623 1.65778 13.3018 2.05921 14.9299L1.79159 15.086C1.34556 13.2572 1.39016 11.317 1.9031 9.48828L2.10381 9.84511Z" fill="#ED6F50"/>
<path d="M19.8559 20.2822C21.2162 18.9664 22.2198 17.2938 22.7328 15.4651L14.5481 16.491L19.8559 20.2822Z" fill="url(#paint16_linear_324_25577)"/>
<path d="M22.7328 15.4651L14.5481 16.491L14.9272 16.5802L22.6881 15.5989C22.7105 15.5766 22.7105 15.5097 22.7328 15.4651Z" fill="#7B73B3"/>
<path d="M19.9451 20.1706L14.9272 16.6024L14.5481 16.5132L19.8559 20.2821C19.8782 20.2375 19.9228 20.1929 19.9451 20.1706Z" fill="#D1CEE8"/>
<path d="M19.8557 20.2822C21.1715 19.011 22.1974 17.3607 22.7326 15.4651L22.3758 15.6658C21.8629 17.3161 20.9485 18.788 19.7219 20.0146L19.8557 20.2822Z" fill="#655EA5"/>
<path d="M14.5481 16.491L19.8559 20.2599C18.4955 21.5757 16.8005 22.5124 14.9495 22.9807L14.5481 16.491Z" fill="url(#paint17_linear_324_25577)"/>
<path d="M19.8559 20.2822L14.5481 16.491L14.7042 16.7809L19.722 20.3714C19.7666 20.3491 19.8113 20.3045 19.8559 20.2822ZM15.0833 22.9584L14.7042 16.8032L14.5481 16.5133L14.9495 23.003C14.9941 22.9807 15.0387 22.9584 15.0833 22.9584Z" fill="#E53121"/>
<path d="M15.061 22.6684C16.7113 22.2223 18.2278 21.3749 19.499 20.2152L19.8558 20.2821C18.4954 21.5979 16.8005 22.5346 14.9495 23.0029L15.061 22.6684Z" fill="url(#paint18_linear_324_25577)"/>
<path d="M14.5481 16.491L14.9495 22.9807C13.1654 23.4267 11.2474 23.4267 9.35181 22.8915L14.5481 16.491Z" fill="url(#paint19_linear_324_25577)"/>
<path d="M14.9495 22.9807L14.548 16.491L14.4365 16.8701L14.8156 23.0253C14.838 23.003 14.9049 23.003 14.9495 22.9807Z" fill="#F5B0AC"/>
<path d="M9.32959 22.8915L9.4857 22.9361L14.4366 16.8701L14.5481 16.491L9.32959 22.8915Z" fill="#FAD9D5"/>
<path d="M9.68641 22.6907C11.4036 23.1367 13.1431 23.1367 14.7712 22.7353L14.9273 23.0029C13.0762 23.4712 11.1583 23.4266 9.32959 22.9137L9.68641 22.6907Z" fill="url(#paint20_linear_324_25577)"/>
<path d="M34.4411 11.6292C34.0619 11.54 32.0994 11.0048 32.0325 10.9825C31.1181 10.7148 30.8951 10.3134 30.8951 9.80048V9.28754C30.8951 8.86381 31.1404 8.52929 31.4527 8.41778C31.698 8.32858 31.9656 8.30627 32.4339 8.30627H36.6043C36.7158 8.30627 36.805 8.21707 36.805 8.10556V7.1466C36.805 6.72287 36.7827 6.29914 36.3813 5.96462C36.1583 5.7862 35.7569 5.63009 35.1993 5.51859C34.5972 5.40708 33.6382 5.31787 32.3447 5.31787C30.2707 5.31787 29.111 5.7416 28.3081 6.65596C28.1074 6.87898 27.4607 7.81564 27.4607 9.28754V10.358C27.6168 12.6328 29.111 13.2795 30.6498 13.6586C31.0289 13.7478 32.9023 14.2608 32.9692 14.2831C33.8835 14.5507 34.1288 14.9521 34.1288 15.4651V16.0672C34.1288 16.4909 33.8612 16.8255 33.549 16.937C33.3037 17.0262 32.9692 17.0485 32.5008 17.0485H27.6614C27.5499 17.0485 27.4607 17.1377 27.4607 17.2492V17.7398C27.483 18.565 27.5945 19.1671 28.1297 19.5685C28.5535 19.8808 29.3786 20.2822 32.0325 20.2822H32.3224C33.8389 20.2376 34.8202 20.0146 35.4892 19.7247C36.0691 19.457 36.4036 19.1671 36.6712 18.8549C37.028 18.4758 37.5633 17.5391 37.6302 16.3125V15.1082C37.5187 12.8335 35.9799 12.0306 34.4411 11.6292ZM51.1003 5.51859H49.3162C48.6694 5.51859 48.5133 5.6747 48.5133 6.32144V13.4802H48.4241C48.0004 12.8781 44.4098 7.72643 43.607 6.56676C43.161 5.94231 42.5588 5.51859 41.6445 5.51859H40.3956C40.2841 5.51859 40.1949 5.60779 40.1949 5.7193V19.3009C40.1949 19.9477 40.3287 20.1038 40.9977 20.1038H42.7818C43.4286 20.1038 43.5847 19.9477 43.5847 19.3009V12.1198H43.6739L48.6025 19.1671C49.0486 19.7247 49.673 20.0815 50.4313 20.0815H51.6578C51.7693 20.0815 51.8586 19.9923 51.8586 19.8808V6.29914C51.9032 5.6747 51.7693 5.51859 51.1003 5.51859ZM64.7042 15.1082C64.5481 12.8335 63.0093 12.0306 61.4928 11.6515C61.1137 11.5623 59.1511 11.0271 59.0842 11.0048C58.1699 10.7371 57.9469 10.3357 57.9469 9.82278V9.30984C57.9469 8.88611 58.1922 8.55159 58.5044 8.44008C58.7497 8.35088 59.0173 8.32858 59.4857 8.32858H63.6561C63.7676 8.32858 63.8568 8.23937 63.8568 8.12786V7.1689C63.8568 6.74517 63.8345 6.32144 63.433 5.98692C63.21 5.8085 62.8086 5.65239 62.2511 5.54089C61.6489 5.42938 60.69 5.34017 59.3965 5.34017C57.3224 5.34017 56.1627 5.7639 55.3599 6.67826C55.1592 6.90128 54.5124 7.83794 54.5124 9.30984V10.3803C54.6685 12.6551 56.185 13.3018 57.7015 13.6809C58.0807 13.7701 59.954 14.2831 60.0209 14.3054C60.9353 14.573 61.1806 14.9744 61.1806 15.4874V16.0895C61.1806 16.5132 60.913 16.8478 60.6007 16.9593C60.3554 17.0485 60.0209 17.0708 59.5526 17.0708H54.7131C54.6016 17.0708 54.5124 17.16 54.5124 17.2715V17.7621C54.5347 18.5873 54.6462 19.1894 55.1815 19.5908C55.6052 19.9031 56.4304 20.3045 59.0842 20.3045H59.3742C60.8907 20.2599 61.8719 20.0369 62.541 19.747C63.1208 19.4793 63.4553 19.1894 63.723 18.8772C64.0798 18.4981 64.615 17.5614 64.6819 16.3348C64.7042 16.1341 64.7042 15.1974 64.7042 15.1082Z" fill="white"/>
</g>
<defs>
<linearGradient id="paint0_linear_324_25577" x1="16.9359" y1="12.1228" x2="21.0713" y2="13.2904" gradientUnits="userSpaceOnUse">
<stop stop-color="#E53121"/>
<stop offset="1" stop-color="#C22C1A"/>
</linearGradient>
<linearGradient id="paint1_linear_324_25577" x1="1.96821" y1="11.2125" x2="12.3462" y2="14.1428" gradientUnits="userSpaceOnUse">
<stop stop-color="#DCDAEE"/>
<stop offset="1" stop-color="#8F88C0"/>
</linearGradient>
<linearGradient id="paint2_linear_324_25577" x1="19.7578" y1="7.2094" x2="14.2542" y2="5.73483" gradientUnits="userSpaceOnUse">
<stop stop-color="#7B73B3"/>
<stop offset="1" stop-color="#C6C2E2"/>
</linearGradient>
<linearGradient id="paint3_linear_324_25577" x1="20.2379" y1="4.9177" x2="15.275" y2="2.05218" gradientUnits="userSpaceOnUse">
<stop stop-color="#6C62A8"/>
<stop offset="1" stop-color="#CBCAE6"/>
</linearGradient>
<linearGradient id="paint4_linear_324_25577" x1="17.659" y1="6.3058" x2="20.616" y2="11.4276" gradientUnits="userSpaceOnUse">
<stop stop-color="#E53121"/>
<stop offset="1" stop-color="#A62714"/>
</linearGradient>
<linearGradient id="paint5_linear_324_25577" x1="20.1345" y1="4.96816" x2="23" y2="9.93136" gradientUnits="userSpaceOnUse">
<stop stop-color="#E84D2C"/>
<stop offset="1" stop-color="#811F08"/>
</linearGradient>
<linearGradient id="paint6_linear_324_25577" x1="19.2435" y1="9.12921" x2="21.7721" y2="16.0764" gradientUnits="userSpaceOnUse">
<stop stop-color="#F3F2F9"/>
<stop offset="1" stop-color="#BBB7DB"/>
</linearGradient>
<linearGradient id="paint7_linear_324_25577" x1="21.8725" y1="12.4003" x2="23.5659" y2="12.8858" gradientUnits="userSpaceOnUse">
<stop stop-color="white"/>
<stop offset="1" stop-color="#BBB7DB"/>
</linearGradient>
<linearGradient id="paint8_linear_324_25577" x1="3.23766" y1="7.05846" x2="10.1008" y2="8.99629" gradientUnits="userSpaceOnUse">
<stop stop-color="#FFF098"/>
<stop offset="1" stop-color="#FFD530"/>
</linearGradient>
<linearGradient id="paint9_linear_324_25577" x1="5.16085" y1="3.49317" x2="11.3397" y2="5.74228" gradientUnits="userSpaceOnUse">
<stop stop-color="#F4A286"/>
<stop offset="1" stop-color="#E53121"/>
</linearGradient>
<linearGradient id="paint10_linear_324_25577" x1="4.68502" y1="4.75432" x2="9.80657" y2="1.79737" gradientUnits="userSpaceOnUse">
<stop stop-color="#F4A286"/>
<stop offset="1" stop-color="#E53121"/>
</linearGradient>
<linearGradient id="paint11_linear_324_25577" x1="9.50808" y1="4.36176" x2="14.6984" y2="5.82727" gradientUnits="userSpaceOnUse">
<stop stop-color="#4464AC"/>
<stop offset="1" stop-color="#1D3584"/>
</linearGradient>
<linearGradient id="paint12_linear_324_25577" x1="9.7694" y1="1.94433" x2="15.376" y2="1.94433" gradientUnits="userSpaceOnUse">
<stop stop-color="#4464AC"/>
<stop offset="0.373" stop-color="#2F4B97"/>
<stop offset="0.728" stop-color="#223B89"/>
<stop offset="1" stop-color="#1D3584"/>
</linearGradient>
<linearGradient id="paint13_linear_324_25577" x1="4.28266" y1="20.5848" x2="9.60826" y2="22.112" gradientUnits="userSpaceOnUse">
<stop stop-color="#5B62A2"/>
<stop offset="0.152" stop-color="#4C579A"/>
<stop offset="0.482" stop-color="#31438C"/>
<stop offset="0.776" stop-color="#213783"/>
<stop offset="1" stop-color="#1B3380"/>
</linearGradient>
<linearGradient id="paint14_linear_324_25577" x1="5.04434" y1="14.7422" x2="5.51758" y2="20.1513" gradientUnits="userSpaceOnUse">
<stop stop-color="white"/>
<stop offset="1" stop-color="#DAD8ED"/>
</linearGradient>
<linearGradient id="paint15_linear_324_25577" x1="1.17302" y1="16.9875" x2="5.09786" y2="18.1128" gradientUnits="userSpaceOnUse">
<stop stop-color="white"/>
<stop offset="1" stop-color="#D1CEE8"/>
</linearGradient>
<linearGradient id="paint16_linear_324_25577" x1="15.154" y1="16.1401" x2="22.42" y2="18.1917" gradientUnits="userSpaceOnUse">
<stop stop-color="#D1CEE8"/>
<stop offset="1" stop-color="#7B73B3"/>
</linearGradient>
<linearGradient id="paint17_linear_324_25577" x1="14.4442" y1="16.4959" x2="17.7845" y2="22.2818" gradientUnits="userSpaceOnUse">
<stop stop-color="#E53121"/>
<stop offset="1" stop-color="#B02916"/>
</linearGradient>
<linearGradient id="paint18_linear_324_25577" x1="14.883" y1="23.1472" x2="20.0043" y2="20.1902" gradientUnits="userSpaceOnUse">
<stop stop-color="#E53121"/>
<stop offset="1" stop-color="#9D2511"/>
</linearGradient>
<linearGradient id="paint19_linear_324_25577" x1="11.6172" y1="19.3585" x2="15.2764" y2="23.0177" gradientUnits="userSpaceOnUse">
<stop stop-color="#F5B0AC"/>
<stop offset="1" stop-color="#EF8495"/>
</linearGradient>
<linearGradient id="paint20_linear_324_25577" x1="9.40787" y1="23.0094" x2="15.014" y2="23.0094" gradientUnits="userSpaceOnUse">
<stop stop-color="#F5B0AC"/>
<stop offset="1" stop-color="#EE788F"/>
</linearGradient>
<clipPath id="clip0_324_25577">
<rect width="64.4995" height="25" fill="white" transform="translate(0.250244 0.567627)"/>
</clipPath>
</defs>
</svg>
