<svg width="79" height="21" viewBox="0 0 79 21" fill="none" xmlns="http://www.w3.org/2000/svg">
<g clip-path="url(#clip0_324_25571)">
<path fill-rule="evenodd" clip-rule="evenodd" d="M0.516846 0.684448V15.7451L13.2507 20.0982L26.0145 15.7451V0.684448H0.516846Z" fill="#BF4956"/>
<path fill-rule="evenodd" clip-rule="evenodd" d="M13.2208 15.2674H9.31416V13.9254C8.53872 14.9987 7.43559 15.5652 5.8548 15.5652C3.97623 15.5652 2.18652 14.4027 2.18652 11.9572V4.68042H6.24231V10.2866C6.24231 11.4799 6.39141 12.3442 7.58469 12.3442C8.24093 12.3442 9.16505 12.0161 9.16505 10.2866V4.68042H13.2208V15.2674ZM20.7659 7.78217C20.7061 7.42415 20.5869 7.18575 20.2887 7.00673C20.0498 6.76791 19.7217 6.6487 19.3637 6.6487C18.857 6.6487 18.1708 6.79824 18.1708 7.48396C18.1708 7.81208 18.4092 7.96119 18.6481 8.05091C19.3338 8.34869 20.8547 8.4085 22.2266 8.88573C23.5088 9.30357 24.7016 10.0786 24.7016 11.8085C24.7016 14.7607 21.928 15.566 19.3333 15.566C16.8284 15.566 14.1146 14.5522 14.0253 11.8085H17.873C17.9329 12.1964 18.082 12.4942 18.4097 12.7629C18.5887 12.9116 18.9766 13.0607 19.4833 13.0607C19.9904 13.0607 20.8552 12.8821 20.8552 12.2554C20.8552 11.6295 20.4677 11.4804 18.5887 11.1522C15.5172 10.6156 14.2642 9.60136 14.2642 7.81208C14.2642 5.12816 17.157 4.44202 19.2744 4.44202C21.6003 4.44202 24.344 5.06835 24.4337 7.78217H20.7659Z" fill="white"/>
<path fill-rule="evenodd" clip-rule="evenodd" d="M27.4162 0.743896H31.4421V5.84343H31.5019C32.1282 4.97869 33.2019 4.44208 34.3947 4.44208C37.9438 4.44208 38.9277 7.42378 38.9277 9.92954C38.9277 12.5831 37.4666 15.5653 34.484 15.5653C32.5162 15.5653 31.8898 14.7902 31.3528 14.134H31.3229V15.267H27.4158L27.4162 0.743896ZM33.0822 7.3943C31.6506 7.3943 31.3229 8.73626 31.3229 9.98893C31.3229 11.2416 31.651 12.6434 33.0822 12.6434C34.5434 12.6434 34.8715 11.2416 34.8715 9.98893C34.8715 8.73626 34.5438 7.3943 33.0822 7.3943ZM50.171 12.9112C50.171 13.7465 50.2304 14.6117 50.6473 15.2679H46.5621C46.4728 14.9992 46.3835 14.5518 46.4125 14.2541H46.3835C45.5183 15.2679 44.2657 15.5657 42.954 15.5657C40.9255 15.5657 39.2559 14.5518 39.2559 12.3447C39.2559 9.0349 43.163 9.1242 45.2205 8.73669C45.7572 8.6474 46.3237 8.49829 46.3237 7.81215C46.3237 7.09652 45.6679 6.79831 44.9817 6.79831C43.729 6.79831 43.4907 7.42421 43.4907 7.90187H39.7331C39.8224 4.91931 42.6554 4.44251 45.1612 4.44251C50.2303 4.44251 50.1714 6.53 50.1714 8.58758L50.171 12.9112ZM46.3232 10.5264C45.8256 10.7753 45.2925 10.9462 44.7429 11.0331C43.8183 11.2416 43.3411 11.4804 43.3411 12.1965C43.3411 12.6737 43.8786 13.1501 44.5938 13.1501C45.5183 13.1501 46.2344 12.6434 46.3237 11.5103L46.3232 10.5264ZM51.6321 4.68048H55.5089V6.02244H55.5683C56.3433 4.97869 57.3875 4.44208 59.0281 4.44208C60.9071 4.44208 62.6361 5.60503 62.6361 8.02064V15.2675H58.6106V9.7501C58.6106 8.49786 58.4611 7.66261 57.2982 7.66261C56.5821 7.66261 55.6584 8.02021 55.6584 9.69071V15.2675H51.6321V4.68048ZM64.0981 0.743896H68.1231V7.78224L70.6883 4.68048H75.2512L71.4936 8.67688L75.8177 15.2675H70.9562L68.8392 11.48L68.1231 12.2554V15.2675H64.0981V0.743896ZM77.6668 13.8358C77.8155 13.9853 77.8454 14.1648 77.8454 14.4032C77.8454 14.6117 77.8155 14.7902 77.6668 14.9398C77.4575 15.1483 77.3088 15.1786 77.0704 15.1786C76.8909 15.1786 76.6824 15.1487 76.5628 14.9398C76.3543 14.7902 76.324 14.6117 76.324 14.4032C76.324 14.1643 76.3539 13.9849 76.5628 13.8358C76.7124 13.6871 76.8909 13.5978 77.0704 13.5978C77.3088 13.5978 77.4575 13.6871 77.6668 13.8358ZM77.7561 13.7465C77.5767 13.5978 77.3088 13.5077 77.0704 13.5077C76.832 13.5077 76.5932 13.5978 76.4436 13.7465C76.265 13.9259 76.1757 14.1648 76.1757 14.4032C76.1757 14.6411 76.265 14.8795 76.4436 15.0291C76.5932 15.2376 76.8315 15.3269 77.0704 15.3269C77.3092 15.3269 77.5771 15.2376 77.7561 15.0291C77.9056 14.8795 77.9949 14.6411 77.9949 14.4032C77.9932 14.1633 77.9089 13.9314 77.7561 13.7465ZM77.2195 14.3733H76.8905V14.0152H77.04C77.1293 14.0152 77.2195 14.0152 77.2789 14.0746C77.3088 14.0746 77.3088 14.1349 77.3088 14.2242C77.3088 14.2536 77.2789 14.313 77.2195 14.3733ZM76.7123 14.8795H76.8909V14.5215H77.0405C77.1298 14.5215 77.19 14.5215 77.2199 14.5514C77.2793 14.5514 77.3092 14.6407 77.3092 14.7599V14.8791H77.5177C77.4575 14.8791 77.4575 14.8501 77.4575 14.8501V14.7005C77.4575 14.6403 77.4575 14.6112 77.4284 14.551C77.3682 14.4617 77.3092 14.4617 77.2789 14.4617C77.3088 14.4023 77.3682 14.4023 77.4284 14.3724C77.4575 14.3724 77.5177 14.2532 77.5177 14.1639C77.5177 14.0738 77.4575 13.9845 77.3092 13.9251C77.2793 13.9251 77.19 13.8952 77.0704 13.8952H76.7123V14.8795Z" fill="#325390"/>
</g>
<defs>
<clipPath id="clip0_324_25571">
<rect width="78.8235" height="20" fill="white" transform="translate(0.0881348 0.567627)"/>
</clipPath>
</defs>
</svg>
